<svg width="512" height="512" version="1.1" id="prefix__svg1" xmlns="http://www.w3.org/2000/svg"><defs id="prefix__defs1"><style>:root{--color-primary:#2a7fff;--color-secondary:#0044aa}@media (prefers-color-scheme:dark){:root{--color-primary:#5599ff;--color-secondary:#80b3ff}}</style></defs><g id="prefix__layer1"><g id="prefix__g7" transform="translate(0 6.976)" stroke="none" stroke-width="0" stroke-linecap="round" stroke-linejoin="round" stroke-dasharray="none"><g id="prefix__g5" transform="matrix(.41694 0 0 .41694 150.812 275.517)"><path id="prefix__rect3" d="M92.692 228.771a25.843 25.843 0 00-18.29 7.713l-106.37 107.49a25.834 25.834 0 00-7.389 15.713c-.056.581-.074 1.164-.091 1.747-.01.275-.035.549-.036.824.001.274.026.548.036.822.017.583.035 1.165.091 1.746a25.834 25.834 0 007.39 15.713L74.4 488.03a25.868 25.868 0 0036.662.192 25.866 25.866 0 00.192-36.66l-88.371-89.303 88.37-89.303a25.868 25.868 0 00-.19-36.662 25.844 25.844 0 00-18.372-7.522z" fill="var(--color-primary)"/><rect id="prefix__rect5" width="51.848" height="283.728" x="345.605" y="-379.781" ry="25.924" transform="matrix(.92365 .38323 .38197 -.92417 0 0)" fill="var(--color-secondary)"/><path id="prefix__path5" d="M411.881 228.771a25.843 25.843 0 0118.291 7.713l106.37 107.49a25.834 25.834 0 017.388 15.713c.057.581.074 1.164.092 1.747.01.275.035.549.035.824 0 .274-.026.548-.035.822-.018.583-.035 1.165-.092 1.746a25.834 25.834 0 01-7.389 15.713L430.172 488.03a25.868 25.868 0 01-36.662.192 25.866 25.866 0 01-.191-36.66l88.37-89.303-88.37-89.303a25.868 25.868 0 01.19-36.662 25.844 25.844 0 0118.372-7.522z" fill="var(--color-primary)"/></g><g id="prefix__g6" transform="translate(6.697)"><path id="prefix__path6" d="M295.11 122.626c-15.486 26.823-205.748 26.823-221.234 0C58.389 95.803 153.52-68.969 184.493-68.969S310.597 95.803 295.11 122.626z" transform="matrix(-.3363 -.57359 .58248 -.33116 275.598 225.718)" fill="var(--color-secondary)"/><path id="prefix__path1" d="M295.11 122.626c-17.699 30.655-203.536 30.655-221.234 0-17.7-30.655 75.22-191.595 110.617-191.595 35.397 0 128.316 160.94 110.617 191.595z" transform="matrix(.8225 0 0 1.23273 97.558 171.106)" fill="var(--color-primary)"/></g></g></g></svg>